# xmcd
#
# Track frame offsets:
#	150
#	12745
#	29580
#	44870
#	55295
#	68132
#	84295
#	93965
#	104967
#	120185
#	132940
#	147945
#	163522
#	177312
#	191362
#	201717
#
# Disc length: 2842
#
# Revision: 3
# Processed by: cddbd v1.5.1PL0 Copyright (c) Steve Scherf et al.
# Submitted via: CDValet v3.31 - Copyright (c) 1997 Greg Leichner
# Normalized: r1:DSETVAR1,TDELIM( - ),TSWAP
#
DISCID=ee0b1810
DTITLE=Various Artist - *Country's Greatest CD2*
DYEAR=1900
DGENRE=
TTITLE0=Bill Anderson - Still
TTITLE1=Patsy Cline - Faded Love
TTITLE2=Steve Earl - Goodbye's All We've Got Left
TTITLE3=Warner Mack - The Bridge Washed Out
TTITLE4=George Strait - It Ain't Cool To Be Crazy About You
TTITLE5=Waylon Jennings - Fallin' Out
TTITLE6=Loretta Lynn - Don't Come Home 'A' Drinkin'
TTITLE7=Conway Twitty - Hello Darlin'
TTITLE8=John Conlee - Rose Colored Glasses
TTITLE9=Steve Earl - Nowhere Road
TTITLE10=George Strait - All My Ex's Live In Texas
TTITLE11=Reba McEntire - One Promise Too Late
TTITLE12=The Oak Ridge Boys - This Crazy Love
TTITLE13=Glen Campbell - The Hand That Rocks The Cradle
TTITLE14=Loretta Lynn - Dear Uncle Sam
TTITLE15=Conway Twitty - I Love You More Today
EXTD=
EXTT0=
EXTT1=
EXTT2=
EXTT3=
EXTT4=
EXTT5=
EXTT6=
EXTT7=
EXTT8=
EXTT9=
EXTT10=
EXTT11=
EXTT12=
EXTT13=
EXTT14=
EXTT15=
PLAYORDER=
